<?xml version="1.0" encoding="utf-8"?>
<svg xmlns="http://www.w3.org/2000/svg" version="1.1" viewBox="0 0 400 250" width="400px" height="250px"><g transform="matrix(1.176471, 0, 0, 1.176471, -34.117658, -23.235301)"><title>axes</title><path stroke="#000" stroke-width=".5" stroke-dasharray="6,3" d="M29,125H369"><title>x</title></path><path fill="#fff" stroke="#000" stroke-width=".25" d="M142,27V225" style=""><title>y</title></path></g><g opacity=".75" stroke="#000" stroke-width=".75" transform="matrix(1.176471, 0, 0, 1.176471, -34.117658, -23.235301)"><title>lens</title><path fill="#a1bfdc" d="m128,43h28v165h-28"><title>doublet</title></path><path fill="#cce2ef" d="m115.498,125.31c0,29.423 4.319,55.556 12.332,82.373h3c7.582-26.147 11.666-53.781 11.666-82.373 0-28.593-4.088-56.225-11.674-82.372h-3c-7.164,25.474-12.018,54.607-12.018,82.372z"><title>convex</title></path></g><g fill="none" transform="matrix(1.176471, 0, 0, 1.176471, -34.117658, -23.235301)"><title>rays</title><path stroke="#f00" d="M 59.736 52.537 L 125.114 52.537 L 134.226 56.632 L 156.997 68.727 L 333.651 160.892 M 59.736 198.083 L 125.114 198.083 L 134.226 193.988 L 156.997 181.893 L 333.651 89.728" style=""><title>red</title></path><path stroke="#008837" d="m59.736,197.362h65.187l10.085-6.735 21.962-13.401 175.096-89.666 M59.736,53.257h65.187l10.085,6.735 21.962,13.401 175.096,89.667" style=""><title>green</title></path><path stroke="#0a55a3" d="m59.736,196.642h64.998l11.321-10.831 20.887-12.418 177.919-79.333 M59.736, 53.977h64.998l11.321,10.831 20.887,12.418 177.919,79.333" style=""><title>blue</title></path></g></svg>