<?xml version="1.0" encoding="utf-8"?>
<svg xmlns="http://www.w3.org/2000/svg" version="1.1" viewBox="0 0 400 250" width="400px" height="250px"><g transform="matrix(1.176471, 0, 0, 1.176471, -34.117642, -23.235289)"><title>axes</title><path stroke="#000" stroke-width=".5" stroke-dasharray="6,3" d="M29,125H369"><title>x</title></path><path fill="#fff" stroke="#000" stroke-width=".25" d="M142,27V225" style=""><title>y</title></path></g><g opacity=".75" stroke="#000" stroke-width=".75" transform="matrix(1.176471, 0, 0, 1.176471, -34.117642, -23.235289)"><title>lens</title><path fill="#cce2ef" d="M 128.501 125.31 C 128.501 154.733 132.82 180.866 140.833 207.683 L 143.833 207.683 C 151.415 181.536 155.499 153.902 155.499 125.31 C 155.499 96.717 151.411 69.085 143.825 42.938 L 140.825 42.938 C 133.661 68.412 128.807 97.545 128.807 125.31 L 128.501 125.31 Z"><title>convex</title></path></g><g transform="matrix(1, 0, 0, 1, 1.304, -1.122)" style=""><title>rays</title><path fill="none" stroke="#FF0000" d="M333.652,89.729L140.179,193.667l-14.333,4.416H60.444"/><path fill="none" stroke="#008837" d="M59.736,197.362h65.213l15.623-5.375L328.861,76.307"/><path fill="none" stroke="#0A55A3" d="M59.736,196.642h65.027l16.195-6.347l181.07-125.821"/><path fill="none" stroke="#FF0000" d="M333.652,160.891L140.179,56.953l-14.333-4.416H60.444"/><path fill="none" stroke="#008837" d="M59.736,53.257h65.213l15.623,5.375l188.289,115.681"/><path fill="none" stroke="#0A55A3" d="M59.736,53.977h65.027l16.195,6.347l181.07,125.821"/></g></svg>